<svg xmlns="http://www.w3.org/2000/svg" width="19.657" height="18.72" viewBox="0 0 19.657 18.72">
  <defs>
    <style>
      .cls-1 {
        fill: #6d6d6d;
        fill-rule: evenodd;
      }
    </style>
  </defs>
  <path id="_Icon_Color" data-name="🔹 Icon Color" class="cls-1" d="M417.958,5551.88a0.921,0.921,0,0,0,.672.49l4.38,0.64-3.169,3.08a0.894,0.894,0,0,0-.257.79l0.748,4.36-3.917-2.06a0.934,0.934,0,0,0-.831,0l-3.916,2.06,0.747-4.36a0.894,0.894,0,0,0-.257-0.79l-3.169-3.08,4.381-.64a0.921,0.921,0,0,0,.672-0.49l1.958-3.97Zm-11.016-.38a0.891,0.891,0,0,0-.494,1.52l4.128,4.02-0.974,5.68a0.9,0.9,0,0,0,1.3.95l5.1-2.69,5.1,2.69a0.9,0.9,0,0,0,1.3-.95l-0.974-5.68,4.127-4.02a0.891,0.891,0,0,0-.493-1.52l-5.706-.83-2.552-5.17a0.889,0.889,0,0,0-1.6,0l-2.551,5.17Z" transform="translate(-406.156 -5545.03)"/>
</svg>
